# xmcd CD database file
#
# Track frame offsets:
#	150
#	23064
#	41285
#	62541
#	91956
#	116807
#	143464
#	167532
#	184045
#	215558
#	238111
#	259119
#	284282
#
# Disc length: 3977 seconds
#
# Revision: 0
# Processed by: cddbd v1.5.1PL2 Copyright (c) Steve Scherf et al.
# Submitted via: Feurio! 1.68 - http://www.feurio.com
#
DISCID=ad0f870d
DTITLE=Peter Green Splinter Group - Destiny Road
DYEAR=1900
DGENRE=
TTITLE0=Big Change Is Gonna Come
TTITLE1=Say That You Want To
TTITLE2=Heart Of Stone
TTITLE3=You'll Be Sorry Someday
TTITLE4=Tribal Dance
TTITLE5=Burglar
TTITLE6=Turn Your Love Away
TTITLE7=Madison Blues
TTITLE8=I Can't Help Myself
TTITLE9=Indians
TTITLE10=Hiding In Shadows
TTITLE11=There's A River
TTITLE12=Man Of The World
EXTD=
EXTT0=
EXTT1=
EXTT2=
EXTT3=
EXTT4=
EXTT5=
EXTT6=
EXTT7=
EXTT8=
EXTT9=
EXTT10=
EXTT11=
EXTT12=
PLAYORDER=
